# xmcd
#
# Track frame offsets:
#	183
#	56508
#	118983
#	145190
#	164590
#	208308
#
# Disc length: 3658 seconds
#
# Revision: 2
# Processed by: cddbd v1.5.2PL0 Copyright (c) Steve Scherf et al.
# Submitted via: EasyCDDAExtractor 16.0.8.2
#
DISCID=5e0e4806
DTITLE=Άνευ ερμηνευτού - The 9 Symphonies-Beethoven 5
DYEAR=1992
DGENRE=Κλασική
TTITLE0=S. 6 in F major, op.68 "Pastoral" I. Erwachen heitererEmpfindungen:All
TTITLE0=egro ma non troppo
TTITLE1=S. 6 in F major, op.68 "Pastoral" II. Szene am Bach: Andante molto mos
TTITLE1=so
TTITLE2=S. 6 in F major, op.68 "Pastoral" III. Lustiges Zusammensein der Landl
TTITLE2=eute: Allegro
TTITLE3=S. 6 in F major, op.68 "Pastoral" IV. Gewitter - Sturm: Allegro
TTITLE4=S. 6 in F major, op.68 "Pastoral" V. Hirtengesang. Frohe und dankbare 
TTITLE4=Gefuhle: Allegro
TTITLE5=Overture "Leonore" No.3 in C major, op.72a Adagio - Allegro
EXTD=
EXTT0=
EXTT1=
EXTT2=
EXTT3=
EXTT4=
EXTT5=
PLAYORDER=
